<svg width="32" height="32" viewBox="0 0 32 32" fill="none" xmlns="http://www.w3.org/2000/svg">
  <rect width="32" height="32" rx="4" fill="white"/>
  <g transform="translate(2, 28) scale(0.004, -0.004)" fill="#0056b3" stroke="none">
    <path d="M6480 6686 c-192 -55 -369 -183 -480 -346 -89 -130 -160 -321 -160
-427 0 -50 2 -53 25 -53 13 0 54 11 90 25 296 111 519 351 585 629 24 99 24
180 0 183 -8 1 -35 -4 -60 -11z"/>
    <path d="M5160 6641 c0 -68 27 -202 56 -280 79 -210 252 -397 451 -488 49 -23
56 -24 70 -10 14 13 14 29 4 123 -20 193 -95 358 -225 492 -100 104 -270 212
-333 212 -21 0 -23 -5 -23 -49z"/>
    <path d="M3125 6223 c-105 -26 -113 -228 -11 -277 100 -47 196 19 199 136 2
109 -76 168 -188 141z"/>
  </g>
</svg> 