<svg width="1920" height="1080" viewBox="0 0 1920 1080" xmlns="http://www.w3.org/2000/svg">
  <!-- Gradient background -->
  <defs>
    <linearGradient id="grad1" x1="0%" y1="0%" x2="100%" y2="100%">
      <stop offset="0%" style="stop-color:#064e3b;stop-opacity:1" />
      <stop offset="50%" style="stop-color:#047857;stop-opacity:1" />
      <stop offset="100%" style="stop-color:#10b981;stop-opacity:1" />
    </linearGradient>
    
    <!-- Particle effects -->
    <filter id="blur" x="-50%" y="-50%" width="200%" height="200%">
      <feGaussianBlur in="SourceGraphic" stdDeviation="12" />
    </filter>
  </defs>
  
  <!-- Background -->
  <rect width="1920" height="1080" fill="url(#grad1)" />
  
  <!-- Abstract circuit pattern -->
  <g opacity="0.15">
    <path d="M0,200 L1920,200" stroke="#ffffff" stroke-width="1" />
    <path d="M0,400 L1920,400" stroke="#ffffff" stroke-width="1" />
    <path d="M0,600 L1920,600" stroke="#ffffff" stroke-width="1" />
    <path d="M0,800 L1920,800" stroke="#ffffff" stroke-width="1" />
    <path d="M0,1000 L1920,1000" stroke="#ffffff" stroke-width="1" />
    
    <path d="M200,0 L200,1080" stroke="#ffffff" stroke-width="1" />
    <path d="M400,0 L400,1080" stroke="#ffffff" stroke-width="1" />
    <path d="M600,0 L600,1080" stroke="#ffffff" stroke-width="1" />
    <path d="M800,0 L800,1080" stroke="#ffffff" stroke-width="1" />
    <path d="M1000,0 L1000,1080" stroke="#ffffff" stroke-width="1" />
    <path d="M1200,0 L1200,1080" stroke="#ffffff" stroke-width="1" />
    <path d="M1400,0 L1400,1080" stroke="#ffffff" stroke-width="1" />
    <path d="M1600,0 L1600,1080" stroke="#ffffff" stroke-width="1" />
    <path d="M1800,0 L1800,1080" stroke="#ffffff" stroke-width="1" />
    
    <!-- Circuit nodes -->
    <circle cx="200" cy="200" r="10" fill="#ffffff" />
    <circle cx="400" cy="200" r="10" fill="#ffffff" />
    <circle cx="600" cy="400" r="10" fill="#ffffff" />
    <circle cx="800" cy="400" r="10" fill="#ffffff" />
    <circle cx="1000" cy="600" r="10" fill="#ffffff" />
    <circle cx="1200" cy="600" r="10" fill="#ffffff" />
    <circle cx="1400" cy="800" r="10" fill="#ffffff" />
    <circle cx="1600" cy="800" r="10" fill="#ffffff" />
    <circle cx="1800" cy="1000" r="10" fill="#ffffff" />
  </g>
  
  <!-- Green glowing elements -->
  <g filter="url(#blur)" opacity="0.5">
    <circle cx="300" cy="300" r="80" fill="#4ade80" />
    <circle cx="1700" cy="700" r="90" fill="#4ade80" />
    <circle cx="960" cy="540" r="150" fill="#4ade80" />
    <circle cx="600" cy="800" r="60" fill="#4ade80" />
    <circle cx="1400" cy="300" r="70" fill="#4ade80" />
  </g>
  
  <!-- Abstract wave pattern -->
  <g opacity="0.2">
    <path d="M0,300 Q480,100 960,300 Q1440,500 1920,300" stroke="#a7f3d0" stroke-width="3" fill="none" />
    <path d="M0,500 Q480,700 960,500 Q1440,300 1920,500" stroke="#a7f3d0" stroke-width="2" fill="none" />
    <path d="M0,700 Q480,500 960,700 Q1440,900 1920,700" stroke="#a7f3d0" stroke-width="3" fill="none" />
  </g>
</svg> 