<svg width="1920" height="1080" viewBox="0 0 1920 1080" xmlns="http://www.w3.org/2000/svg">
  <!-- Gradient background -->
  <defs>
    <linearGradient id="grad1" x1="0%" y1="0%" x2="100%" y2="100%">
      <stop offset="0%" style="stop-color:#331f63;stop-opacity:1" />
      <stop offset="50%" style="stop-color:#4f46e5;stop-opacity:1" />
      <stop offset="100%" style="stop-color:#6b46c1;stop-opacity:1" />
    </linearGradient>
    
    <!-- Particle effects -->
    <filter id="blur" x="-50%" y="-50%" width="200%" height="200%">
      <feGaussianBlur in="SourceGraphic" stdDeviation="10" />
    </filter>
  </defs>
  
  <!-- Background -->
  <rect width="1920" height="1080" fill="url(#grad1)" />
  
  <!-- Hexagon pattern -->
  <g opacity="0.1">
    <path d="M0,0 L60,0 L90,52 L60,104 L0,104 L-30,52 Z" fill="#ffffff" transform="translate(100, 100)" />
    <path d="M0,0 L60,0 L90,52 L60,104 L0,104 L-30,52 Z" fill="#ffffff" transform="translate(300, 100)" />
    <path d="M0,0 L60,0 L90,52 L60,104 L0,104 L-30,52 Z" fill="#ffffff" transform="translate(500, 100)" />
    <path d="M0,0 L60,0 L90,52 L60,104 L0,104 L-30,52 Z" fill="#ffffff" transform="translate(700, 100)" />
    <path d="M0,0 L60,0 L90,52 L60,104 L0,104 L-30,52 Z" fill="#ffffff" transform="translate(900, 100)" />
    <path d="M0,0 L60,0 L90,52 L60,104 L0,104 L-30,52 Z" fill="#ffffff" transform="translate(1100, 100)" />
    <path d="M0,0 L60,0 L90,52 L60,104 L0,104 L-30,52 Z" fill="#ffffff" transform="translate(1300, 100)" />
    <path d="M0,0 L60,0 L90,52 L60,104 L0,104 L-30,52 Z" fill="#ffffff" transform="translate(1500, 100)" />
    <path d="M0,0 L60,0 L90,52 L60,104 L0,104 L-30,52 Z" fill="#ffffff" transform="translate(1700, 100)" />
    
    <path d="M0,0 L60,0 L90,52 L60,104 L0,104 L-30,52 Z" fill="#ffffff" transform="translate(200, 200)" />
    <path d="M0,0 L60,0 L90,52 L60,104 L0,104 L-30,52 Z" fill="#ffffff" transform="translate(400, 200)" />
    <path d="M0,0 L60,0 L90,52 L60,104 L0,104 L-30,52 Z" fill="#ffffff" transform="translate(600, 200)" />
    <path d="M0,0 L60,0 L90,52 L60,104 L0,104 L-30,52 Z" fill="#ffffff" transform="translate(800, 200)" />
    <path d="M0,0 L60,0 L90,52 L60,104 L0,104 L-30,52 Z" fill="#ffffff" transform="translate(1000, 200)" />
    <path d="M0,0 L60,0 L90,52 L60,104 L0,104 L-30,52 Z" fill="#ffffff" transform="translate(1200, 200)" />
    <path d="M0,0 L60,0 L90,52 L60,104 L0,104 L-30,52 Z" fill="#ffffff" transform="translate(1400, 200)" />
    <path d="M0,0 L60,0 L90,52 L60,104 L0,104 L-30,52 Z" fill="#ffffff" transform="translate(1600, 200)" />
    <path d="M0,0 L60,0 L90,52 L60,104 L0,104 L-30,52 Z" fill="#ffffff" transform="translate(1800, 200)" />
  </g>
  
  <!-- Flowing lines -->
  <g opacity="0.3">
    <path d="M0,200 C300,150 600,350 900,250 C1200,150 1500,350 1920,250" stroke="#a78bfa" stroke-width="3" fill="none" />
    <path d="M0,400 C300,350 600,550 900,450 C1200,350 1500,550 1920,450" stroke="#a78bfa" stroke-width="2" fill="none" />
    <path d="M0,600 C300,550 600,750 900,650 C1200,550 1500,750 1920,650" stroke="#a78bfa" stroke-width="3" fill="none" />
    <path d="M0,800 C300,750 600,950 900,850 C1200,750 1500,950 1920,850" stroke="#a78bfa" stroke-width="2" fill="none" />
  </g>
  
  <!-- Glowing orbs -->
  <g filter="url(#blur)" opacity="0.6">
    <circle cx="300" cy="300" r="60" fill="#e9d5ff" />
    <circle cx="1600" cy="780" r="80" fill="#e9d5ff" />
    <circle cx="960" cy="540" r="120" fill="#e9d5ff" />
    <circle cx="500" cy="900" r="50" fill="#e9d5ff" />
    <circle cx="1300" cy="200" r="70" fill="#e9d5ff" />
  </g>
</svg> 