<svg width="32" height="32" viewBox="0 0 32 32" fill="none" xmlns="http://www.w3.org/2000/svg">
  <!-- Defs for gradients and effects -->
  <defs>
    <linearGradient id="bgGradient" x1="0%" y1="0%" x2="100%" y2="100%">
      <stop offset="0%" stopColor="#F43F5E" />
      <stop offset="50%" stopColor="#8B5CF6" />
      <stop offset="100%" stopColor="#3B82F6" />
    </linearGradient>
    
    <linearGradient id="barGradient1" x1="0%" y1="100%" x2="0%" y2="0%">
      <stop offset="0%" stopColor="#FCD34D" />
      <stop offset="100%" stopColor="#F59E0B" />
    </linearGradient>
    
    <linearGradient id="barGradient2" x1="0%" y1="100%" x2="0%" y2="0%">
      <stop offset="0%" stopColor="#4ADE80" />
      <stop offset="100%" stopColor="#10B981" />
    </linearGradient>
    
    <linearGradient id="barGradient3" x1="0%" y1="100%" x2="0%" y2="0%">
      <stop offset="0%" stopColor="#38BDF8" />
      <stop offset="100%" stopColor="#0EA5E9" />
    </linearGradient>
    
    <radialGradient id="dGlow" cx="50%" cy="50%" r="50%" fx="50%" fy="50%">
      <stop offset="0%" stopColor="white" stopOpacity="0.8" />
      <stop offset="100%" stopColor="white" stopOpacity="0" />
    </radialGradient>
  </defs>
  
  <!-- Background with rounded corners -->
  <rect width="32" height="32" rx="8" fill="url(#bgGradient)"/>
  
  <!-- Decorative particles -->
  <circle cx="7" cy="7" r="1" fill="white" opacity="0.8" />
  <circle cx="25" cy="9" r="1" fill="white" opacity="0.8" />
  <circle cx="26" cy="24" r="1" fill="white" opacity="0.8" />
  <circle cx="10" cy="26" r="1" fill="white" opacity="0.8" />
  
  <!-- Stylized "D" mark with glow -->
  <path d="M10 8C10 8 10 24 10 24C16 24 22 20 22 16C22 12 16 8 10 8Z" fill="white" />
  <circle cx="12" cy="16" r="8" fill="url(#dGlow)" opacity="0.6" />
  
  <!-- Colorful dynamic elements - rising bars -->
  <rect x="16" y="19" width="3" height="8" rx="1.5" fill="url(#barGradient1)" />
  <rect x="21" y="16" width="3" height="11" rx="1.5" fill="url(#barGradient2)" />
  <rect x="26" y="14" width="3" height="13" rx="1.5" fill="url(#barGradient3)" />
</svg> 