<svg width="1920" height="1080" viewBox="0 0 1920 1080" xmlns="http://www.w3.org/2000/svg">
  <!-- Gradient background -->
  <defs>
    <linearGradient id="grad1" x1="0%" y1="0%" x2="100%" y2="100%">
      <stop offset="0%" style="stop-color:#051937;stop-opacity:1" />
      <stop offset="50%" style="stop-color:#004d7a;stop-opacity:1" />
      <stop offset="100%" style="stop-color:#0a2e5c;stop-opacity:1" />
    </linearGradient>
    
    <!-- Particle effects -->
    <filter id="blur" x="-50%" y="-50%" width="200%" height="200%">
      <feGaussianBlur in="SourceGraphic" stdDeviation="10" />
    </filter>
  </defs>
  
  <!-- Background -->
  <rect width="1920" height="1080" fill="url(#grad1)" />
  
  <!-- Abstract lines -->
  <g opacity="0.3">
    <path d="M0,400 Q960,100 1920,600" stroke="#4f46e5" stroke-width="3" fill="none" />
    <path d="M0,600 Q960,300 1920,800" stroke="#4f46e5" stroke-width="2" fill="none" />
    <path d="M0,800 Q960,500 1920,1000" stroke="#4f46e5" stroke-width="3" fill="none" />
  </g>
  
  <!-- Particles -->
  <g filter="url(#blur)" opacity="0.5">
    <circle cx="200" cy="200" r="50" fill="#4f46e5" />
    <circle cx="1720" cy="880" r="70" fill="#4f46e5" />
    <circle cx="960" cy="540" r="100" fill="#4f46e5" />
    <circle cx="400" cy="800" r="40" fill="#4f46e5" />
    <circle cx="1500" cy="300" r="60" fill="#4f46e5" />
  </g>
  
  <!-- Grid lines -->
  <g opacity="0.1">
    <line x1="0" y1="0" x2="1920" y2="1080" stroke="#ffffff" stroke-width="1" />
    <line x1="1920" y1="0" x2="0" y2="1080" stroke="#ffffff" stroke-width="1" />
    <line x1="960" y1="0" x2="960" y2="1080" stroke="#ffffff" stroke-width="1" />
    <line x1="0" y1="540" x2="1920" y2="540" stroke="#ffffff" stroke-width="1" />
  </g>
</svg> 